<svg xmlns="http://www.w3.org/2000/svg" viewBox="0 0 99.7 30" width="99.7" height="30"><defs><style>.cls-1{fill:#f22f46;}</style></defs><title>Asset 1</title><g id="Layer_2" data-name="Layer 2"><g id="Layer_1-2" data-name="Layer 1"><path class="cls-1" d="M14.4,11.3a3.1,3.1,0,1,1-3.1-3.1A3.12,3.12,0,0,1,14.4,11.3Zm-3.1,4.3a3.1,3.1,0,1,0,3.1,3.1A3.12,3.12,0,0,0,11.3,15.6ZM30,15A15,15,0,1,1,15,0,15,15,0,0,1,30,15Zm-4,0A11,11,0,1,0,15,26,11,11,0,0,0,26,15Zm-7.3.6a3.1,3.1,0,1,0,3.1,3.1A3.12,3.12,0,0,0,18.7,15.6Zm0-7.4a3.1,3.1,0,1,0,3.1,3.1A3.12,3.12,0,0,0,18.7,8.2ZM70.3,5.9c.1,0,.2.1.3.2V9.3a.32.32,0,0,1-.3.3H65a.32.32,0,0,1-.3-.3V6.2a.32.32,0,0,1,.3-.3Zm-.1,4.5H60a.32.32,0,0,0-.3.3l-1.3,5-.1.3-1.6-5.3a.45.45,0,0,0-.3-.3h-4a.32.32,0,0,0-.3.3l-1.5,5-.1.3-.1-.3-.6-2.5-.6-2.5a.45.45,0,0,0-.3-.3h-8V6.1a.3.3,0,0,0-.4-.2l-5,1.6a.27.27,0,0,0-.3.3v2.7H33.9a.32.32,0,0,0-.3.3v3.8a.32.32,0,0,0,.3.3h1.3v4.7c0,3.3,1.8,4.8,5.1,4.8a7.67,7.67,0,0,0,3.6-.8v-4c0-.2-.2-.3-.3-.2a3.93,3.93,0,0,1-1.4.3,1.22,1.22,0,0,1-1.4-1.4V14.9h2.9a.32.32,0,0,0,.3-.3V11.4L47.8,24a.45.45,0,0,0,.3.3h4.2a.32.32,0,0,0,.3-.3l1.8-5.6.9,2.9.8,2.7a.45.45,0,0,0,.3.3h4.2a.32.32,0,0,0,.3-.3l3.8-12.6V24a.32.32,0,0,0,.3.3h5.1a.32.32,0,0,0,.3-.3V10.7C70.4,10.6,70.3,10.4,70.2,10.4Zm6.7-4.5H71.8a.32.32,0,0,0-.3.3V23.9a.32.32,0,0,0,.3.3h5.1a.32.32,0,0,0,.3-.3V6.1C77.2,6,77.1,5.9,76.9,5.9Zm6.8,0H78.4a.32.32,0,0,0-.3.3V9.3a.32.32,0,0,0,.3.3h5.3a.32.32,0,0,0,.3-.3V6.1C84,6,83.9,5.9,83.7,5.9Zm-.1,4.5H78.5a.32.32,0,0,0-.3.3V23.8a.32.32,0,0,0,.3.3h5.1a.32.32,0,0,0,.3-.3V10.7A.32.32,0,0,0,83.6,10.4Zm16.1,6.8c0,3.8-3.2,7.1-7.7,7.1a7.31,7.31,0,0,1-7.6-7.1c0-3.8,3.2-7.1,7.7-7.1A7.31,7.31,0,0,1,99.7,17.2Zm-5.4.1a2.21,2.21,0,0,0-2.2-2.4,2.27,2.27,0,0,0-2.2,2.4,2.33,2.33,0,0,0,2.2,2.4A2.27,2.27,0,0,0,94.3,17.3Z"/></g></g></svg>